# xmcd
#
# Track frame offsets:
#	150
#	19874
#	41583
#	59352
#	77086
#	89839
#	105433
#	135750
#	152919
#	169885
#	184283
#
# Disc length: 2899 seconds
#
# Revision: 1
# Processed by: cddbd v1.5.2PL0 Copyright (c) Steve Scherf et al.
# Submitted via: audiograbber 1.83.01
#
DISCID=8b0b510b
DTITLE=Mark Robinson - Quit Your Job Play Guitar
DYEAR=2011
DGENRE=Blues
TTITLE0=Poor boy
TTITLE1=Payday giveaway
TTITLE2=Runaway train
TTITLE3=Sleepwalk
TTITLE4=This old heart
TTITLE5=Memphis won't leave me alone
TTITLE6=The fixer
TTITLE7=Back in the saddle
TTITLE8=Backup plan
TTITLE9=I know you'll be mine
TTITLE10=Try one more time
EXTD=
EXTT0=
EXTT1=
EXTT2=
EXTT3=
EXTT4=
EXTT5=
EXTT6=
EXTT7=
EXTT8=
EXTT9=
EXTT10=
PLAYORDER=
